<?xml version="1.0" standalone="no"?>
<!DOCTYPE svg PUBLIC "-//W3C//DTD SVG 20010904//EN"
 "http://www.w3.org/TR/2001/REC-SVG-20010904/DTD/svg10.dtd">
<svg version="1.0" xmlns="http://www.w3.org/2000/svg"
 width="171.000000pt" height="87.000000pt" viewBox="0 0 171.000000 87.000000"
 preserveAspectRatio="xMidYMid meet">

<g transform="translate(0.000000,87.000000) scale(0.100000,-0.100000)"
fill="#000000" stroke="none">
<path d="M378 609 c-16 -9 -18 -27 -18 -144 l0 -135 -71 0 -70 0 3 -40 c4 -49
22 -58 26 -12 l3 32 66 0 c57 0 66 2 70 20 9 36 35 18 79 -55 24 -38 45 -74
48 -80 5 -11 86 68 86 85 0 19 -18 10 -44 -21 -14 -17 -30 -27 -36 -24 -6 4
-22 29 -35 56 l-25 49 25 0 c15 0 40 14 62 33 31 29 37 41 40 88 5 63 -17 107
-69 139 -36 22 -111 27 -140 9z m134 -31 c10 -5 27 -27 39 -50 24 -47 21 -84
-12 -129 -18 -25 -27 -29 -69 -29 -81 0 -80 -1 -80 115 0 99 1 104 23 108 26
5 75 -2 99 -15z"/>
<path d="M1060 439 l0 -181 34 -34 c19 -19 43 -34 55 -34 30 0 80 50 87 88 9
44 -8 40 -28 -8 -19 -46 -55 -61 -92 -37 -28 19 -36 54 -36 153 l0 74 80 0
c63 0 80 3 80 15 0 11 -18 15 -77 17 l-78 3 -1 50 c-2 72 -3 75 -14 75 -6 0
-10 -67 -10 -181z"/>
<path d="M667 479 c-27 -15 -57 -87 -57 -134 0 -49 26 -102 62 -129 26 -19 30
-19 61 -4 42 20 67 70 67 132 0 106 -67 173 -133 135z m87 -52 c44 -59 17
-186 -42 -195 -48 -7 -92 86 -73 154 21 77 74 95 115 41z"/>
<path d="M827 483 c-11 -11 -8 -160 4 -209 30 -116 167 -113 199 5 14 54 9
203 -7 209 -10 3 -13 -22 -13 -100 0 -113 -10 -146 -52 -166 -33 -15 -71 -3
-93 32 -13 19 -16 49 -16 131 1 96 -4 117 -22 98z"/>
<path d="M1324 478 c-55 -26 -83 -152 -49 -218 18 -35 61 -70 86 -70 35 0 71
24 90 62 23 45 23 48 4 48 -8 0 -15 -6 -15 -14 0 -7 -9 -25 -21 -40 -27 -35
-72 -35 -103 -1 -25 27 -40 85 -22 86 6 0 47 1 91 2 90 2 94 6 75 77 -17 63
-81 95 -136 68z m95 -44 c12 -15 21 -37 21 -50 0 -23 -3 -24 -75 -24 -85 0
-91 8 -55 68 26 43 78 46 109 6z"/>
</g>
</svg>
